<svg width="24" height="25" viewBox="0 0 24 25" fill="none" xmlns="http://www.w3.org/2000/svg">
<g clip-path="url(#clip0_205_21973)">
<path fill-rule="evenodd" clip-rule="evenodd" d="M11.2932 8.79303C11.4807 8.60556 11.735 8.50024 12.0002 8.50024C12.2653 8.50024 12.5197 8.60556 12.7072 8.79303L18.3642 14.45C18.5463 14.6386 18.6471 14.8912 18.6449 15.1534C18.6426 15.4156 18.5374 15.6664 18.352 15.8518C18.1666 16.0373 17.9158 16.1424 17.6536 16.1447C17.3914 16.147 17.1388 16.0462 16.9502 15.864L12.0002 10.914L7.05018 15.864C6.86158 16.0462 6.60898 16.147 6.34678 16.1447C6.08458 16.1424 5.83377 16.0373 5.64836 15.8518C5.46295 15.6664 5.35778 15.4156 5.35551 15.1534C5.35323 14.8912 5.45402 14.6386 5.63618 14.45L11.2932 8.79303Z" fill="#767676"/>
</g>
<defs>
<clipPath id="clip0_205_21973">
<rect width="24" height="24" fill="white" transform="translate(0 0.5)"/>
</clipPath>
</defs>
</svg>
