<svg width="21" height="20" viewBox="0 0 21 20" fill="none" xmlns="http://www.w3.org/2000/svg">
<path d="M10.5 2C6.04286 2 2.5 5.54286 2.5 10C2.5 14.4571 6.04286 18 10.5 18C14.9571 18 18.5 14.4571 18.5 10C18.5 5.54286 14.9571 2 10.5 2ZM10.5 16.8571C6.72857 16.8571 3.64286 13.7714 3.64286 10C3.64286 6.22857 6.72857 3.14286 10.5 3.14286C14.2714 3.14286 17.3571 6.22857 17.3571 10C17.3571 13.7714 14.2714 16.8571 10.5 16.8571Z" fill="current"/>
<path d="M13.5857 14L10.5 10.9143L7.41429 14L6.5 13.0857L9.58571 10L6.5 6.91429L7.41429 6L10.5 9.08571L13.5857 6L14.5 6.91429L11.4143 10L14.5 13.0857L13.5857 14Z" fill="current"/>
</svg>
