<svg width="24" height="24" viewBox="0 0 24 24" fill="none" xmlns="http://www.w3.org/2000/svg">
<path fill-rule="evenodd" clip-rule="evenodd" d="M9.69435 3H13.8064C15.6444 3 17.1004 3 18.2394 3.153C19.4114 3.311 20.3603 3.643 21.1094 4.391C21.8573 5.14 22.1894 6.089 22.3474 7.261C22.4374 7.934 22.4744 8.717 22.4894 9.624C22.5024 9.70001 22.5038 9.77758 22.4934 9.854C22.5004 10.42 22.5004 11.032 22.5004 11.694V12.75C22.5004 12.9489 22.4213 13.1397 22.2807 13.2803C22.14 13.421 21.9493 13.5 21.7504 13.5C21.5514 13.5 21.3607 13.421 21.22 13.2803C21.0794 13.1397 21.0004 12.9489 21.0004 12.75V11.75C21.0004 11.304 21.0004 10.888 20.9984 10.5H2.50235C2.50035 10.888 2.50035 11.304 2.50035 11.75C2.50035 13.657 2.50235 15.012 2.64035 16.04C2.77535 17.045 3.02935 17.625 3.45235 18.048C3.87535 18.471 4.45535 18.725 5.46135 18.86C6.48935 18.998 7.84335 19 9.75035 19H12.7504C12.9493 19 13.14 19.079 13.2807 19.2197C13.4213 19.3603 13.5004 19.5511 13.5004 19.75C13.5004 19.9489 13.4213 20.1397 13.2807 20.2803C13.14 20.421 12.9493 20.5 12.7504 20.5H9.69435C7.85635 20.5 6.40035 20.5 5.26135 20.347C4.08935 20.189 3.14035 19.857 2.39135 19.109C1.64335 18.36 1.31135 17.411 1.15335 16.239C1.00035 15.099 1.00035 13.644 1.00035 11.806V11.694C1.00035 11.032 1.00035 10.42 1.00735 9.854C0.99663 9.77763 0.997641 9.70007 1.01035 9.624C1.02635 8.717 1.06335 7.934 1.15335 7.261C1.31135 6.089 1.64335 5.14 2.39135 4.391C3.14035 3.643 4.08935 3.311 5.26135 3.153C6.40135 3 7.85635 3 9.69435 3ZM2.52635 9H20.9744C20.9618 8.4851 20.9237 7.97114 20.8604 7.46C20.7254 6.455 20.4714 5.875 20.0484 5.452C19.6254 5.029 19.0454 4.775 18.0394 4.64C17.0124 4.502 15.6574 4.5 13.7504 4.5H9.75035C7.84335 4.5 6.48935 4.502 5.46035 4.64C4.45535 4.775 3.87535 5.029 3.45235 5.452C3.02935 5.875 2.77535 6.455 2.64035 7.461C2.58035 7.906 2.54635 8.413 2.52635 9ZM17.7504 14.5C17.1536 14.5 16.5813 14.7371 16.1594 15.159C15.7374 15.581 15.5004 16.1533 15.5004 16.75C15.5004 17.3467 15.7374 17.919 16.1594 18.341C16.5813 18.7629 17.1536 19 17.7504 19C18.3471 19 18.9194 18.7629 19.3413 18.341C19.7633 17.919 20.0004 17.3467 20.0004 16.75C20.0004 16.1533 19.7633 15.581 19.3413 15.159C18.9194 14.7371 18.3471 14.5 17.7504 14.5ZM14.0004 16.75C14.0005 16.1653 14.1374 15.5888 14.4001 15.0664C14.6628 14.5441 15.0439 14.0904 15.5132 13.7416C15.9824 13.3928 16.5267 13.1585 17.1026 13.0575C17.6785 12.9565 18.27 12.9916 18.83 13.1599C19.3899 13.3282 19.9027 13.6252 20.3274 14.027C20.7522 14.4288 21.0771 14.9243 21.2762 15.4741C21.4753 16.0238 21.5431 16.6125 21.4742 17.1931C21.4053 17.7737 21.2016 18.3301 20.8794 18.818L21.7804 19.72C21.854 19.7887 21.9131 19.8715 21.9541 19.9635C21.9951 20.0555 22.0172 20.1548 22.0189 20.2555C22.0207 20.3562 22.0022 20.4562 21.9645 20.5496C21.9268 20.643 21.8706 20.7278 21.7994 20.799C21.7282 20.8703 21.6433 20.9264 21.5499 20.9641C21.4566 21.0018 21.3565 21.0204 21.2558 21.0186C21.1551 21.0168 21.0558 20.9948 20.9638 20.9538C20.8718 20.9128 20.789 20.8537 20.7204 20.78L19.8184 19.879C19.2531 20.2527 18.5972 20.4662 17.9203 20.4969C17.2434 20.5276 16.5709 20.3744 15.9741 20.0534C15.3774 19.7325 14.8787 19.2559 14.5312 18.6742C14.1837 18.0925 14.0002 17.4276 14.0004 16.75ZM5.00035 15.75C5.00035 15.5511 5.07937 15.3603 5.22002 15.2197C5.36067 15.079 5.55144 15 5.75035 15H9.75035C9.94926 15 10.14 15.079 10.2807 15.2197C10.4213 15.3603 10.5004 15.5511 10.5004 15.75C10.5004 15.9489 10.4213 16.1397 10.2807 16.2803C10.14 16.421 9.94926 16.5 9.75035 16.5H5.75035C5.55144 16.5 5.36067 16.421 5.22002 16.2803C5.07937 16.1397 5.00035 15.9489 5.00035 15.75Z" fill="white"/>
</svg>
