<svg width="19" height="18" viewBox="0 0 19 18" fill="none" xmlns="http://www.w3.org/2000/svg">
<mask id="mask0_205_15720" style="mask-type:luminance" maskUnits="userSpaceOnUse" x="0" y="0" width="19" height="18">
<path d="M9.5 18C10.6821 18.0015 11.8529 17.7694 12.945 17.317C14.0372 16.8646 15.0291 16.2009 15.8639 15.3639C16.7009 14.5291 17.3646 13.5372 17.817 12.445C18.2694 11.3529 18.5015 10.1821 18.5 9C18.5015 7.81788 18.2694 6.64712 17.817 5.555C17.3646 4.46287 16.7009 3.4709 15.8639 2.63611C15.0291 1.79912 14.0372 1.13536 12.945 0.682965C11.8529 0.230575 10.6821 -0.00152412 9.5 7.53144e-06C8.31788 -0.00149947 7.14712 0.230611 6.055 0.683C4.96287 1.13539 3.9709 1.79914 3.13611 2.63611C2.29914 3.4709 1.63539 4.46287 1.183 5.555C0.730611 6.64712 0.498501 7.81788 0.500008 9C0.498476 10.1821 0.730575 11.3529 1.18297 12.445C1.63536 13.5372 2.29912 14.5291 3.13611 15.3639C3.9709 16.2009 4.96287 16.8646 6.055 17.317C7.14712 17.7694 8.31788 18.0015 9.5 18Z" fill="white"/>
<path d="M5.8999 9.00005L8.5999 11.7L13.9999 6.30005" stroke="black" stroke-linecap="round" stroke-linejoin="round"/>
</mask>
<g mask="url(#mask0_205_15720)">
<path d="M-1.2998 -1.80005H20.3002V19.7999H-1.2998V-1.80005Z" fill="white"/>
</g>
</svg>
