<svg width="16" height="15" viewBox="0 0 16 15" fill="none" xmlns="http://www.w3.org/2000/svg">
<path d="M7.99968 14.3665C8.87532 14.3677 9.74256 14.1958 10.5515 13.8606C11.3605 13.5255 12.0953 13.0339 12.7137 12.4139C13.3337 11.7955 13.8253 11.0607 14.1605 10.2517C14.4956 9.44276 14.6675 8.57552 14.6663 7.69987C14.6675 6.82423 14.4955 5.957 14.1604 5.14802C13.8253 4.33903 13.3337 3.60424 12.7137 2.98588C12.0953 2.36588 11.3605 1.87421 10.5515 1.5391C9.74256 1.204 8.87532 1.03207 7.99968 1.03321C7.12404 1.03209 6.25681 1.20403 5.44782 1.53913C4.63884 1.87423 3.90405 2.3659 3.28568 2.98588C2.6657 3.60424 2.17404 4.33903 1.83893 5.14802C1.50383 5.957 1.3319 6.82423 1.33301 7.69987C1.33188 8.57552 1.5038 9.44276 1.83891 10.2517C2.17401 11.0607 2.66569 11.7955 3.28568 12.4139C3.90405 13.0338 4.63884 13.5255 5.44782 13.8606C6.25681 14.1957 7.12404 14.3677 7.99968 14.3665Z" fill="current" stroke="current" stroke-width="1.2" stroke-linejoin="round"/>
<path d="M5.33301 7.69995L7.33301 9.69995L11.333 5.69995" fill="current"/>
<path d="M5.33301 7.69995L7.33301 9.69995L11.333 5.69995" stroke="white" stroke-width="1.2" stroke-linecap="round" stroke-linejoin="round"/>
</svg>
