<svg width="33" height="34" viewBox="0 0 33 34" fill="none" xmlns="http://www.w3.org/2000/svg">
<path d="M16.5 0.5C18.6668 0.5 20.8124 0.926785 22.8143 1.75599C24.8161 2.58519 26.6351 3.80057 28.1673 5.33274C29.6994 6.8649 30.9148 8.68385 31.744 10.6857C32.5732 12.6876 33 14.8332 33 17C33 19.1668 32.5732 21.3124 31.744 23.3143C30.9148 25.3161 29.6994 27.1351 28.1673 28.6673C26.6351 30.1994 24.8161 31.4148 22.8143 32.244C20.8124 33.0732 18.6668 33.5 16.5 33.5C12.1239 33.5 7.92709 31.7616 4.83274 28.6673C1.73839 25.5729 0 21.3761 0 17C0 12.6239 1.73839 8.42709 4.83274 5.33274C7.92709 2.23839 12.1239 0.5 16.5 0.5ZM16.5 3.25C12.8533 3.25 9.35591 4.69866 6.77728 7.27728C4.19866 9.85591 2.75 13.3533 2.75 17C2.75 20.6467 4.19866 24.1441 6.77728 26.7227C9.35591 29.3013 12.8533 30.75 16.5 30.75C20.1467 30.75 23.6441 29.3013 26.2227 26.7227C28.8013 24.1441 30.25 20.6467 30.25 17C30.25 13.3533 28.8013 9.85591 26.2227 7.27728C23.6441 4.69866 20.1467 3.25 16.5 3.25ZM16.5 22.5C17.047 22.5 17.5716 22.7173 17.9584 23.1041C18.3452 23.4909 18.5625 24.0155 18.5625 24.5625C18.5625 25.1095 18.3452 25.6341 17.9584 26.0209C17.5716 26.4077 17.047 26.625 16.5 26.625C15.953 26.625 15.4284 26.4077 15.0416 26.0209C14.6548 25.6341 14.4375 25.1095 14.4375 24.5625C14.4375 24.0155 14.6548 23.4909 15.0416 23.1041C15.4284 22.7173 15.953 22.5 16.5 22.5ZM16.5 7.375C16.8218 7.37489 17.1335 7.48767 17.3807 7.6937C17.6279 7.89972 17.7951 8.18594 17.853 8.5025L17.875 8.75V18.375C17.8756 18.7186 17.7476 19.05 17.5161 19.3039C17.2846 19.5578 16.9664 19.7159 16.6242 19.7469C16.282 19.778 15.9406 19.6798 15.6672 19.4716C15.3938 19.2635 15.2082 18.9606 15.147 18.6225L15.125 18.375V8.75C15.125 8.38533 15.2699 8.03559 15.5277 7.77773C15.7856 7.51987 16.1353 7.375 16.5 7.375Z" fill="#FF3932"/>
</svg>
