<svg width="22" height="22" viewBox="0 0 22 22" fill="none" xmlns="http://www.w3.org/2000/svg">
<path d="M4.63374 2.97515C4.57337 2.9071 4.50008 2.8517 4.41814 2.81217C4.3362 2.77265 4.24723 2.74978 4.15638 2.74489C4.06553 2.74 3.97462 2.75319 3.88891 2.7837C3.8032 2.81421 3.7244 2.86142 3.65707 2.92261C3.58974 2.9838 3.53523 3.05774 3.49669 3.14015C3.45815 3.22256 3.43635 3.3118 3.43255 3.4027C3.42875 3.4936 3.44303 3.58434 3.47456 3.66968C3.5061 3.75502 3.55425 3.83325 3.61624 3.89984L5.26968 5.71914C2.14843 7.63468 0.806086 10.5875 0.746789 10.7216C0.707698 10.8095 0.6875 10.9046 0.6875 11.0009C0.6875 11.0971 0.707698 11.1922 0.746789 11.2802C0.776867 11.348 1.50476 12.9619 3.12296 14.5802C5.27913 16.7355 8.00249 17.875 11 17.875C12.5405 17.8838 14.0655 17.5666 15.4748 16.9443L17.3654 19.0248C17.4258 19.0929 17.499 19.1483 17.581 19.1878C17.6629 19.2273 17.7519 19.2502 17.8427 19.2551C17.9336 19.26 18.0245 19.2468 18.1102 19.2163C18.1959 19.1858 18.2747 19.1386 18.3421 19.0774C18.4094 19.0162 18.4639 18.9423 18.5024 18.8598C18.541 18.7774 18.5628 18.6882 18.5666 18.5973C18.5704 18.5064 18.5561 18.4156 18.5246 18.3303C18.493 18.245 18.4449 18.1667 18.3829 18.1002L4.63374 2.97515ZM8.70116 9.49265L12.2822 13.4329C11.7429 13.7166 11.1247 13.8131 10.5246 13.7074C9.92452 13.6017 9.37655 13.2996 8.96673 12.8487C8.55691 12.3978 8.30846 11.8235 8.26039 11.2161C8.21233 10.6086 8.36737 10.0024 8.70116 9.49265ZM11 16.5C8.35484 16.5 6.04398 15.5384 4.13101 13.6426C3.34585 12.8622 2.67803 11.9721 2.14843 11C2.55148 10.2446 3.83796 8.13054 6.21757 6.7564L7.76444 8.45367C7.16558 9.22066 6.85715 10.1747 6.89367 11.1471C6.93019 12.1195 7.30931 13.0477 7.96402 13.7676C8.61873 14.4875 9.50688 14.9528 10.4715 15.0812C11.4361 15.2096 12.415 14.9929 13.2352 14.4693L14.5011 15.8615C13.3839 16.2901 12.1966 16.5066 11 16.5ZM11.5156 8.29898C11.3365 8.26479 11.1782 8.16084 11.0757 8.00999C10.9732 7.85914 10.9349 7.67375 10.9691 7.49461C11.0032 7.31546 11.1072 7.15723 11.258 7.05473C11.4089 6.95223 11.5943 6.91386 11.7734 6.94804C12.6497 7.11791 13.4475 7.56649 14.0479 8.22687C14.6484 8.88724 15.0192 9.72403 15.1052 10.6124C15.1222 10.794 15.0664 10.9748 14.95 11.1152C14.8336 11.2555 14.6663 11.3439 14.4848 11.3609C14.4633 11.3623 14.4418 11.3623 14.4203 11.3609C14.2485 11.3617 14.0826 11.298 13.9553 11.1826C13.8281 11.0671 13.7487 10.9081 13.7328 10.737C13.6749 10.1461 13.4279 9.58966 13.0284 9.1504C12.629 8.71114 12.0984 8.41253 11.5156 8.29898ZM21.2506 11.2802C21.2145 11.3609 20.344 13.2885 18.3837 15.0442C18.3168 15.1061 18.2381 15.1541 18.1524 15.1853C18.0667 15.2165 17.9757 15.2304 17.8846 15.226C17.7935 15.2217 17.7042 15.1993 17.6218 15.1602C17.5394 15.121 17.4657 15.0658 17.4049 14.9979C17.344 14.9299 17.2973 14.8505 17.2675 14.7643C17.2376 14.6782 17.2252 14.5869 17.231 14.4959C17.2368 14.4049 17.2606 14.3159 17.3011 14.2342C17.3415 14.1524 17.3979 14.0796 17.4668 14.0198C18.4284 13.1558 19.2363 12.1347 19.8559 11C19.3251 10.027 18.6558 9.13629 17.869 8.3557C15.956 6.46164 13.6451 5.5 11 5.5C10.4426 5.49933 9.88619 5.54445 9.33624 5.63492C9.24681 5.65073 9.15513 5.64867 9.0665 5.62886C8.97787 5.60904 8.89404 5.57185 8.81986 5.51946C8.74568 5.46706 8.68262 5.40048 8.63432 5.32357C8.58601 5.24666 8.55343 5.16094 8.53844 5.07137C8.52346 4.98179 8.52637 4.89013 8.54701 4.80169C8.56764 4.71325 8.6056 4.62977 8.65869 4.55608C8.71177 4.48239 8.77893 4.41994 8.85629 4.37236C8.93364 4.32477 9.01966 4.29298 9.10937 4.27882C9.73427 4.17564 10.3666 4.12419 11 4.125C13.9975 4.125 16.7209 5.26453 18.877 7.4207C20.4952 9.0389 21.2231 10.6537 21.2532 10.7216C21.2923 10.8095 21.3125 10.9046 21.3125 11.0009C21.3125 11.0971 21.2923 11.1922 21.2532 11.2802H21.2506Z" fill="#909092"/>
</svg>
