<svg width="6" height="10" viewBox="0 0 11 19" fill="none" xmlns="http://www.w3.org/2000/svg">
<path fill-rule="evenodd" clip-rule="evenodd" d="M10.5787 8.4892C10.8485 8.75731 11 9.12089 11 9.5C11 9.87911 10.8485 10.2427 10.5787 10.5108L2.43859 18.5987C2.16721 18.8591 1.80373 19.0032 1.42644 18.9999C1.04915 18.9967 0.688248 18.8463 0.421456 18.5812C0.154664 18.3162 0.00333231 17.9576 5.35909e-05 17.5827C-0.00322417 17.2078 0.141813 16.8467 0.403928 16.5771L7.5267 9.5L0.403929 2.42294C0.141813 2.1533 -0.0032235 1.79215 5.42975e-05 1.41728C0.00333305 1.04242 0.154665 0.683831 0.421457 0.418751C0.688249 0.153672 1.04915 0.00331109 1.42644 5.36283e-05C1.80373 -0.00320383 2.16721 0.140903 2.43859 0.401336L10.5787 8.4892Z" fill="current"/>
</svg>
