<svg width="24" height="24" viewBox="0 0 24 24" fill="none" xmlns="http://www.w3.org/2000/svg">
<g clip-path="url(#clip0_205_18513)">
<path d="M11.9999 11.1111H16.4443M11.9999 7.55556H16.4443M8.44434 14.6667V4.53333C8.44434 4.39188 8.50053 4.25623 8.60055 4.15621C8.70056 4.05619 8.83622 4 8.97767 4H19.4666C19.608 4 19.7437 4.05619 19.8437 4.15621C19.9437 4.25623 19.9999 4.39188 19.9999 4.53333V16.4444C19.9999 17.3874 19.6253 18.2918 18.9585 18.9586C18.2917 19.6254 17.3873 20 16.4443 20" stroke="current" stroke-width="1.5" stroke-linecap="round" stroke-linejoin="round"/>
<path d="M5.77778 14.6667H12.3556C12.6498 14.6667 12.8916 14.9041 12.9156 15.1974C13.0249 16.5467 13.5822 20.0001 16.4444 20.0001H6.66667C5.95942 20.0001 5.28115 19.7191 4.78105 19.219C4.28095 18.7189 4 18.0407 4 17.3334V16.4445C4 15.973 4.1873 15.5208 4.5207 15.1874C4.8541 14.854 5.30628 14.6667 5.77778 14.6667Z" stroke="current" stroke-width="1.5" stroke-linecap="round" stroke-linejoin="round"/>
</g>
<defs>
<clipPath id="clip0_205_18513">
<rect width="18" height="18" fill="white" transform="translate(3 3)"/>
</clipPath>
</defs>
</svg>
