<svg width="6" height="10" viewBox="0 0 6 10" fill="none" xmlns="http://www.w3.org/2000/svg">
<path fill-rule="evenodd" clip-rule="evenodd" d="M0.326794 5.532C0.184794 5.39089 0.105057 5.19953 0.105057 5C0.105057 4.80047 0.184794 4.6091 0.326794 4.468L4.61106 0.21121C4.75389 0.0741578 4.9452 -0.001685 5.14377 5.18435e-05C5.34235 0.00173605 5.5323 0.0808946 5.67271 0.220421C5.81313 0.359895 5.89278 0.548631 5.8945 0.745947C5.89623 0.943262 5.81989 1.13332 5.68194 1.27521L1.93311 5L5.68194 8.72477C5.81989 8.86668 5.89623 9.05676 5.8945 9.25406C5.89278 9.45136 5.81313 9.64009 5.67271 9.7796C5.53229 9.91912 5.34235 9.99826 5.14377 9.99997C4.9452 10.0017 4.75389 9.92584 4.61106 9.78877L0.326794 5.532Z" fill="current"/>
</svg>
