<svg width="24" height="24" viewBox="0 0 24 24" fill="none" xmlns="http://www.w3.org/2000/svg">
<path fill-rule="evenodd" clip-rule="evenodd" d="M18.6562 3.92959C19.2085 3.92959 19.6563 4.37731 19.6563 4.92959L19.6563 8.75802C19.6562 9.02324 19.5509 9.27759 19.3634 9.46513C19.1758 9.65266 18.9215 9.75802 18.6562 9.75802L14.8278 9.75802C14.2755 9.75802 13.8278 9.31031 13.8278 8.75802C13.8278 8.20574 14.2755 7.75802 14.8278 7.75802L17.6562 7.75802L17.6562 4.92959C17.6562 4.37731 18.104 3.92959 18.6562 3.92959Z" fill="white"/>
<path fill-rule="evenodd" clip-rule="evenodd" d="M12 6C8.68629 6 6 8.68629 6 12C6 15.3137 8.68629 18 12 18C15.3137 18 18 15.3137 18 12C18 11.4477 18.4477 11 19 11C19.5523 11 20 11.4477 20 12C20 16.4183 16.4183 20 12 20C7.58172 20 4 16.4183 4 12C4 7.58172 7.58172 4 12 4C14.5091 4 16.749 5.15631 18.2141 6.9613C18.5622 7.3901 18.4967 8.01987 18.0679 8.36794C17.6391 8.716 17.0094 8.65056 16.6613 8.22176C15.5596 6.86452 13.8811 6 12 6Z" fill="white"/>
</svg>
