<svg width="57" height="57" viewBox="0 0 57 57" fill="none" xmlns="http://www.w3.org/2000/svg">
<g filter="url(#filter0_d_205_21939)">
<rect x="3.66602" y="3.5" width="48" height="48" rx="24" fill="white" shape-rendering="crispEdges"/>
<rect x="4.16602" y="4" width="47" height="47" rx="23.5" stroke="#D3D3D3" shape-rendering="crispEdges"/>
<path d="M33.666 37.5C32.8327 37.5 32.1243 37.2083 31.541 36.625C30.9577 36.0417 30.666 35.3333 30.666 34.5C30.666 34.3833 30.6743 34.2623 30.691 34.137C30.7077 34.0117 30.7327 33.8993 30.766 33.8L23.716 29.7C23.4327 29.95 23.116 30.146 22.766 30.288C22.416 30.43 22.0493 30.5007 21.666 30.5C20.8327 30.5 20.1243 30.2083 19.541 29.625C18.9577 29.0417 18.666 28.3333 18.666 27.5C18.666 26.6667 18.9577 25.9583 19.541 25.375C20.1243 24.7917 20.8327 24.5 21.666 24.5C22.0493 24.5 22.416 24.571 22.766 24.713C23.116 24.855 23.4327 25.0507 23.716 25.3L30.766 21.2C30.7327 21.1 30.7077 20.9877 30.691 20.863C30.6743 20.7383 30.666 20.6173 30.666 20.5C30.666 19.6667 30.9577 18.9583 31.541 18.375C32.1243 17.7917 32.8327 17.5 33.666 17.5C34.4993 17.5 35.2077 17.7917 35.791 18.375C36.3743 18.9583 36.666 19.6667 36.666 20.5C36.666 21.3333 36.3743 22.0417 35.791 22.625C35.2077 23.2083 34.4993 23.5 33.666 23.5C33.2827 23.5 32.916 23.4293 32.566 23.288C32.216 23.1467 31.8993 22.9507 31.616 22.7L24.566 26.8C24.5993 26.9 24.6243 27.0127 24.641 27.138C24.6577 27.2633 24.666 27.384 24.666 27.5C24.666 27.616 24.6577 27.737 24.641 27.863C24.6243 27.989 24.5993 28.1013 24.566 28.2L31.616 32.3C31.8993 32.05 32.216 31.8543 32.566 31.713C32.916 31.5717 33.2827 31.5007 33.666 31.5C34.4993 31.5 35.2077 31.7917 35.791 32.375C36.3743 32.9583 36.666 33.6667 36.666 34.5C36.666 35.3333 36.3743 36.0417 35.791 36.625C35.2077 37.2083 34.4993 37.5 33.666 37.5Z" fill="#67656C"/>
</g>
<defs>
<filter id="filter0_d_205_21939" x="0.666016" y="0.5" width="56" height="56" filterUnits="userSpaceOnUse" color-interpolation-filters="sRGB">
<feFlood flood-opacity="0" result="BackgroundImageFix"/>
<feColorMatrix in="SourceAlpha" type="matrix" values="0 0 0 0 0 0 0 0 0 0 0 0 0 0 0 0 0 0 127 0" result="hardAlpha"/>
<feOffset dx="1" dy="1"/>
<feGaussianBlur stdDeviation="2"/>
<feComposite in2="hardAlpha" operator="out"/>
<feColorMatrix type="matrix" values="0 0 0 0 0 0 0 0 0 0 0 0 0 0 0 0 0 0 0.08 0"/>
<feBlend mode="normal" in2="BackgroundImageFix" result="effect1_dropShadow_205_21939"/>
<feBlend mode="normal" in="SourceGraphic" in2="effect1_dropShadow_205_21939" result="shape"/>
</filter>
</defs>
</svg>
