<svg width="24" height="24" viewBox="0 0 24 24" fill="none" xmlns="http://www.w3.org/2000/svg">
<path d="M21.6486 19.8751C20.2208 17.4067 18.0205 15.6367 15.4527 14.7976C16.7229 14.0415 17.7097 12.8893 18.2617 11.518C18.8136 10.1468 18.9002 8.63224 18.5081 7.20701C18.116 5.78178 17.2668 4.52467 16.0911 3.62873C14.9154 2.73279 13.4781 2.24756 11.9999 2.24756C10.5217 2.24756 9.08438 2.73279 7.90866 3.62873C6.73294 4.52467 5.88382 5.78178 5.49171 7.20701C5.09959 8.63224 5.18616 10.1468 5.73813 11.518C6.29009 12.8893 7.27692 14.0415 8.54708 14.7976C5.97926 15.6357 3.77895 17.4057 2.35114 19.8751C2.29878 19.9605 2.26405 20.0555 2.249 20.1545C2.23394 20.2535 2.23888 20.3545 2.2635 20.4516C2.28813 20.5487 2.33195 20.6399 2.39238 20.7197C2.45281 20.7996 2.52862 20.8666 2.61535 20.9167C2.70207 20.9667 2.79795 20.999 2.89733 21.0114C2.99671 21.0238 3.09757 21.0162 3.19397 20.9891C3.29037 20.9619 3.38034 20.9157 3.45859 20.8532C3.53684 20.7907 3.60178 20.7131 3.64958 20.6251C5.41583 17.5726 8.5377 15.7501 11.9999 15.7501C15.4621 15.7501 18.584 17.5726 20.3502 20.6251C20.398 20.7131 20.4629 20.7907 20.5412 20.8532C20.6194 20.9157 20.7094 20.9619 20.8058 20.9891C20.9022 21.0162 21.0031 21.0238 21.1024 21.0114C21.2018 20.999 21.2977 20.9667 21.3844 20.9167C21.4712 20.8666 21.547 20.7996 21.6074 20.7197C21.6678 20.6399 21.7116 20.5487 21.7363 20.4516C21.7609 20.3545 21.7658 20.2535 21.7508 20.1545C21.7357 20.0555 21.701 19.9605 21.6486 19.8751ZM6.74989 9.00011C6.74989 7.96176 7.05779 6.94672 7.63467 6.08337C8.21155 5.22001 9.03149 4.5471 9.9908 4.14974C10.9501 3.75238 12.0057 3.64841 13.0241 3.85099C14.0425 4.05356 14.978 4.55357 15.7122 5.2878C16.4464 6.02202 16.9464 6.95748 17.149 7.97588C17.3516 8.99429 17.2476 10.0499 16.8503 11.0092C16.4529 11.9685 15.78 12.7884 14.9166 13.3653C14.0533 13.9422 13.0382 14.2501 11.9999 14.2501C10.608 14.2486 9.27347 13.695 8.28922 12.7108C7.30498 11.7265 6.75138 10.392 6.74989 9.00011Z" fill="white"/>
</svg>
