<svg height="108" viewBox="0 0 424 108" fill="none" xmlns="http://www.w3.org/2000/svg">
<path d="M81.1941 60.4735C84.2453 59.9282 86.565 57.2581 86.565 54.0365C86.565 50.4199 83.6388 47.4928 80.0373 47.4928C79.9248 47.4928 79.8123 47.5053 79.6997 47.5116C89.0035 44.8979 95.8313 36.336 95.8313 26.1695C95.8313 13.9283 85.9273 4 73.716 4C61.5048 4 51.6007 13.9283 51.6007 26.1695C51.6007 27.7176 51.7633 29.2344 52.0634 30.6949C50.8942 29.598 49.331 28.9148 47.5991 28.9148C43.9914 28.9148 41.0714 31.8482 41.0714 35.4585C41.0714 36.01 41.1464 36.5491 41.2777 37.063C37.3199 33.3211 31.9864 31.0271 26.1153 31.0271C13.904 31.0271 4 40.9554 4 53.1965C4 65.4377 13.904 75.366 26.1153 75.366C32.2866 75.366 37.8576 72.8338 41.8717 68.7471C41.6279 69.4303 41.4903 70.1637 41.4903 70.9284C41.4903 74.5449 44.4165 77.472 48.018 77.472C49.9688 77.472 51.7195 76.6071 52.9138 75.2469C52.3385 77.2276 52.0196 79.3148 52.0196 81.4835C52.0196 93.7246 61.9237 103.653 74.1349 103.653C86.3462 103.653 96.2502 93.7246 96.2502 81.4835C96.2502 71.7119 89.9414 63.4257 81.1878 60.4735H81.1941ZM54.5394 71.223C54.5394 71.1227 54.5519 71.0286 54.5519 70.9284C54.5519 67.3118 51.6257 64.3847 48.0243 64.3847C46.7675 64.3847 45.5983 64.7482 44.6041 65.3625C46.8988 61.8713 48.2368 57.6906 48.2368 53.1965C48.2368 48.7025 46.9863 44.7976 44.8292 41.3816C45.6733 41.7828 46.6112 42.0084 47.6053 42.0084C50.9129 42.0084 53.6453 39.5388 54.0705 36.3359C57.747 43.4688 65.1625 48.3452 73.7223 48.3452C75.0103 48.3452 76.2671 48.2261 77.4926 48.0193C75.1541 49.0159 73.5097 51.3412 73.5097 54.049C73.5097 56.2866 74.6289 58.2547 76.3358 59.4394C75.6168 59.3704 74.8852 59.3328 74.1412 59.3328C65.6189 59.3328 58.2347 64.1653 54.5394 71.2417V71.223Z" fill="#303CE9"/>
<path d="M58.9719 45.4805C57.4025 50.3381 56.127 51.6104 51.2812 53.1899C56.127 54.7632 57.3963 56.0418 58.9719 60.8994C60.5413 56.0418 61.8168 54.7695 66.6625 53.1899C61.8168 51.6167 60.5475 50.3381 58.9719 45.4805Z" fill="#303CE9"/>
<path d="M125.858 56.9139L132.857 42.1135H125.25V30.4402H168.473V38.9863H176.463V18.2364H190.163V60.5716H176.463V50.4281H167.482V42.1135H161.164L167.859 56.2252L155.454 61.4861L147.92 43.79H146.4L138.713 62.9368L125.853 56.9082L125.858 56.9139ZM129.056 16.8647H164.672V28.0017H129.056V16.8647ZM133.967 66.1825C136.782 63.7157 140.651 62.4852 145.572 62.4852H175.934C180.602 62.4852 184.279 63.7327 186.97 66.222C189.656 68.7169 191.002 72.1207 191.002 76.4445C191.002 80.7684 189.656 84.4261 186.97 86.9719C184.279 89.512 180.602 90.7877 175.934 90.7877H145.572C140.651 90.7877 136.782 89.5177 133.967 86.9719C131.151 84.4261 129.743 80.9208 129.743 76.4445C129.743 71.9683 131.151 68.6492 133.967 66.1825ZM144.316 78.4653C144.8 78.9451 145.442 79.1879 146.259 79.1879H174.492C175.303 79.1879 175.951 78.9451 176.435 78.4653C176.919 77.9799 177.156 77.3082 177.156 76.4445C177.156 75.6317 176.925 75.0051 176.469 74.5761C176.013 74.1415 175.354 73.927 174.492 73.927H146.259C145.397 73.927 144.739 74.1415 144.282 74.5761C143.826 75.0051 143.595 75.6317 143.595 76.4445C143.595 77.3082 143.838 77.9799 144.316 78.4653Z" fill="#1A1C20"/>
<path d="M200.963 18.846H214.663V48.904H228.819C230.39 48.904 231.815 48.8306 233.082 48.6725V38.9072H251.039V34.177H233.082V22.8876H251.039V18.2363H264.739V69.3491H251.039V50.2023H241.984L244.417 56.3042C242.085 57.5742 239.546 58.5903 236.809 59.358C234.067 60.12 231.28 60.5038 228.436 60.5038H200.963V18.846ZM206.138 65.076H219.838V77.8161H265.499V89.5627H206.143V65.076H206.138Z" fill="#1A1C20"/>
<path d="M273.107 75.2199H300.654V61.7177H278.507V19.9131H336.494V61.7177H314.348V75.2199H341.894V87.2713H273.102V75.2199H273.107ZM322.8 49.6663V31.9702H292.207V49.6663H322.8Z" fill="#1A1C20"/>
<path d="M349.051 36.6945C349.051 30.999 350.813 26.6864 354.338 23.7625C357.863 20.8385 363.027 19.3766 369.823 19.3766C376.62 19.3766 381.772 20.8385 385.269 23.7625C388.771 26.6864 390.517 30.999 390.517 36.6945V65.8324C390.517 71.5279 388.766 75.8405 385.269 78.7644C381.766 81.6884 376.62 83.1504 369.823 83.1504C363.027 83.1504 357.863 81.6884 354.338 78.7644C350.813 75.8405 349.051 71.5279 349.051 65.8324V36.6945ZM369.823 71.0989C372.104 71.0989 373.844 70.5909 375.037 69.5749C376.231 68.5588 376.828 67.0348 376.828 64.997V37.5356C376.828 35.5035 376.231 33.9737 375.037 32.9577C373.844 31.9417 372.109 31.4336 369.823 31.4336C365.104 31.4336 362.745 33.4657 362.745 37.5356V64.997C362.745 69.0668 365.104 71.0989 369.823 71.0989ZM397.905 18.2363H411.605V43.4851H419.364V55.5365H411.605V90.3248H397.905V18.2363Z" fill="#1A1C20"/>
</svg>
