<svg width="195" height="210" viewBox="0 0 195 210" fill="none" xmlns="http://www.w3.org/2000/svg">
<path d="M159.723 117.923C165.878 116.823 170.557 111.437 170.557 104.938C170.557 97.6423 164.654 91.7375 157.389 91.7375C157.162 91.7375 156.935 91.7628 156.708 91.7754C175.477 86.5028 189.25 69.231 189.25 48.7222C189.25 24.0283 169.271 4 144.637 4C120.004 4 100.024 24.0283 100.024 48.7222C100.024 51.8453 100.352 54.9052 100.958 57.8512C98.5991 55.6385 95.4458 54.2603 91.9519 54.2603C84.6741 54.2603 78.7837 60.1778 78.7837 67.4608C78.7837 68.5735 78.9351 69.6609 79.2 70.6977C71.2158 63.1492 60.4567 58.5214 48.6129 58.5214C23.9793 58.5214 4 78.5497 4 103.244C4 127.938 23.9793 147.966 48.6129 147.966C61.0622 147.966 72.3005 142.858 80.3982 134.614C79.9063 135.992 79.6288 137.471 79.6288 139.014C79.6288 146.309 85.5318 152.214 92.797 152.214C96.7323 152.214 100.264 150.469 102.673 147.726C101.513 151.721 100.869 155.932 100.869 160.307C100.869 185 120.849 205.029 145.482 205.029C170.116 205.029 190.095 185 190.095 160.307C190.095 140.594 177.369 123.879 159.71 117.923H159.723ZM105.953 139.608C105.953 139.406 105.978 139.216 105.978 139.014C105.978 131.718 100.075 125.813 92.8096 125.813C90.2744 125.813 87.9157 126.547 85.9102 127.786C90.5392 120.743 93.2385 112.309 93.2385 103.244C93.2385 94.1778 90.7158 86.3005 86.3643 79.4095C88.067 80.2187 89.959 80.6739 91.9645 80.6739C98.6369 80.6739 104.149 75.6921 105.007 69.2309C112.423 83.6199 127.382 93.4571 144.65 93.4571C147.248 93.4571 149.783 93.2168 152.256 92.7996C147.538 94.81 144.221 99.5009 144.221 104.963C144.221 109.477 146.479 113.447 149.922 115.837C148.472 115.698 146.996 115.622 145.495 115.622C128.303 115.622 113.407 125.371 105.953 139.646V139.608Z" fill="#303CE9"/>
<path d="M114.895 87.6787C111.729 97.4779 109.156 100.045 99.3809 103.231C109.156 106.405 111.717 108.984 114.895 118.783C118.061 108.984 120.634 106.417 130.409 103.231C120.634 100.057 118.074 97.4779 114.895 87.6787Z" fill="#303CE9"/>
</svg>
